<?xml version="1.0" encoding="utf-8"?>
<!-- Generator: Adobe Illustrator 24.0.1, SVG Export Plug-In . SVG Version: 6.00 Build 0)  -->
<svg version="1.1" id="Layer_1" xmlns="http://www.w3.org/2000/svg" xmlns:xlink="http://www.w3.org/1999/xlink" x="0px" y="0px"
	 viewBox="0 0 148.8 122.9" style="enable-background:new 0 0 148.8 122.9;" xml:space="preserve">
<style type="text/css">
	.st0{fill-rule:evenodd;clip-rule:evenodd;fill:#FF3B30;}
	.st1{fill-rule:evenodd;clip-rule:evenodd;fill:#E5E5E5;}
</style>
<path class="st0" d="M89.5,122.9H59.3c-28.8,0-52.2-23.4-52.2-52.2V52.2C7.1,23.4,30.5,0,59.3,0l30.2,0c28.8,0,52.2,23.4,52.2,52.2
	v18.6C141.7,99.5,118.3,122.9,89.5,122.9z"/>
<rect x="32.7" y="34.8" class="st1" width="83.4" height="47.4"/>
<title>end-call</title>
<path class="st0" d="M117.9,104.9c-24,24-62.9,24-86.9,0S6.9,42,30.9,18s62.9-24,86.9,0c11.5,11.5,18,27.2,18,43.5
	C135.9,77.7,129.4,93.4,117.9,104.9z M87.6,55.7c-4-1.2-8.2-1.9-12.4-2.1c-4.8-0.1-9.6,0.6-14.2,2.1c-0.3,0.1-0.6,0.3-0.7,0.7
	C60.1,57,60,57.6,60,58.2c0,0.7,0.1,1.3,0.2,2c0.4,3,0.9,6.8-2.4,8l-0.2,0.1l-12,3.2h-0.1c-1.6,0.3-3.3-0.3-4.4-1.5
	c-1.3-1.4-2.2-3.1-2.7-4.9c-0.6-2.3-0.5-4.7,0.4-6.9c0.8-2.1,1.9-4,3.3-5.8c2-2.7,4.6-4.9,7.5-6.4c3.3-1.6,6.7-2.8,10.3-3.6l0.3-0.1
	c1.8-0.3,3.8-0.9,5.9-1.2c8.4-1.2,17-0.6,25.1,1.6c6.9,2,13,5.4,16.8,10.7c2.1,2.7,3.2,6.1,2.9,9.6c-0.4,3.3-2.2,6.4-4.9,8.4
	c-0.3,0.3-0.8,0.4-1.3,0.3l-13.2-3.4c-1.4-0.1-2.7-1-3.2-2.4c-0.4-1.3-0.5-2.7-0.2-4c0-0.5,0.1-1.1,0.2-1.6
	C88.7,58.5,89,56.3,87.6,55.7L87.6,55.7z"/>
</svg>
