<svg xmlns="http://www.w3.org/2000/svg" viewBox="0 0 24 24"><defs><style>.cls-1{fill:none;}.cls-2{fill:#3f3f3f;fill-rule:evenodd;}</style></defs><title>start-share</title><g id="Layer_2" data-name="Layer 2"><g id="Layer_1-2" data-name="Layer 1"><g id="Icons"><g id="Outlined"><g id="Communication"><g id="Outlined-_-Communication-_-screen_share" data-name="Outlined-/-Communication-/-screen_share"><polygon id="Path" class="cls-1" points="0 0 24 0 24 24 0 24 0 0"/><path id="_-Icon-Color" data-name="🔹-Icon-Color" class="cls-2" d="M20,18a2,2,0,0,0,2-2V6a2,2,0,0,0-2-2H4A2,2,0,0,0,2,6V16a2,2,0,0,0,2,2H0v2H24V18ZM4,16V6H20V16Zm9-6.87c-3.89.54-5.44,3.2-6,5.87,1.39-1.87,3.22-2.72,6-2.72v2.19l4-3.74L13,7Z"/></g></g></g></g></g></g></svg>