<svg xmlns="http://www.w3.org/2000/svg" viewBox="0 0 24 24"><defs><style>.cls-1{fill:none;}.cls-2{fill:#0163a9;fill-rule:evenodd;}</style></defs><title>stop-share</title><g id="Layer_2" data-name="Layer 2"><g id="Layer_1-2" data-name="Layer 1"><g id="Icons"><g id="Outlined"><g id="Communication"><g id="Outlined-_-Communication-_-stop_screen_share" data-name="Outlined-/-Communication-/-stop_screen_share"><polygon id="Path" class="cls-1" points="0 0 24 0 24 24 0 24 0 0"/><path id="_-Icon-Color" data-name="🔹-Icon-Color" class="cls-2" d="M21.79,18l2,2H24V18ZM1.11,3,2.66,4.54A2,2,0,0,0,2,6V16a2,2,0,0,0,2,2H0v2H18.13l2.71,2.71,1.41-1.41L2.52,1.57ZM4,6h.13l5,4.93A7.82,7.82,0,0,0,7,15a6.23,6.23,0,0,1,3.67-2.46L14.13,16H4ZM20,6V16.21l1.3,1.3A2,2,0,0,0,22,16V6a2,2,0,0,0-2-2H7.8l2,2ZM12.93,9.15l2.79,2.78L17,10.73,13,7V9.13Z"/></g></g></g></g></g></g></svg>